<?xml version="1.0" encoding="UTF-8" standalone="no"?>
<!DOCTYPE svg PUBLIC "-//W3C//DTD SVG 1.1//EN" "http://www.w3.org/Graphics/SVG/1.1/DTD/svg11.dtd">
<svg width="100%" height="100%" viewBox="0 0 2670 560" version="1.1" xmlns="http://www.w3.org/2000/svg" xmlns:xlink="http://www.w3.org/1999/xlink" xml:space="preserve" xmlns:serif="http://www.serif.com/" style="fill-rule:evenodd;clip-rule:evenodd;stroke-linejoin:round;stroke-miterlimit:2;">
    <g id="Artboard1" transform="matrix(0.935077,0,0,1,-392.667,-1058.99)">
        <rect x="419.931" y="1058.99" width="2855.19" height="559.2" style="fill:none;"/>
        <clipPath id="_clip1">
            <rect x="419.931" y="1058.99" width="2855.19" height="559.2"/>
        </clipPath>
        <g clip-path="url(#_clip1)">
            <g transform="matrix(32.3736,0,0,30.3076,318.949,975.882)">
                <path d="M7.298,15L4.7,15L3.275,12.5C3.242,12.417 3.213,12.333 3.188,12.25C3.163,12.167 3.15,12.083 3.15,12C3.15,11.933 3.192,11.767 3.275,11.5L4.7,9L7.3,9L8.3,7L10,7L10,6L7.7,6L6.7,8L5.25,8L7.2,4.525C7.283,4.358 7.404,4.229 7.563,4.137C7.721,4.046 7.892,4 8.075,4L10.5,4C10.783,4 11.021,4.096 11.213,4.287C11.404,4.479 11.5,4.717 11.5,5L11.5,9L10,9L9,10L11.5,10L11.5,13L9.3,13L8.3,11L6,11L5,12L7.7,12L8.7,14L11.5,14L11.498,18.464L11.498,19C11.498,19.283 11.402,19.521 11.211,19.713C11.019,19.904 10.782,20 10.498,20L8.073,20C7.89,20 7.72,19.954 7.562,19.863L7.561,19.862C7.403,19.77 7.282,19.642 7.198,19.475L5.248,16L6.7,16L7.7,18L9.998,18L9.998,17L8.298,17L7.298,15ZM16.772,15L15.772,17L14.072,17L14.072,18L16.37,18L17.37,16L18.822,16L16.872,19.475C16.789,19.642 16.668,19.77 16.509,19.862L16.508,19.863C16.35,19.954 16.18,20 15.997,20L13.572,20C13.289,20 13.051,19.904 12.86,19.713C12.668,19.521 12.572,19.283 12.572,19L12.572,18.464L12.57,14L15.37,14L16.37,12L19.07,12L18.07,11L15.77,11L14.77,13L12.57,13L12.57,10L15.07,10L14.07,9L12.57,9L12.57,5C12.57,4.717 12.666,4.479 12.858,4.287C13.05,4.096 13.287,4 13.57,4L15.995,4C16.179,4 16.35,4.046 16.508,4.137C16.666,4.229 16.787,4.358 16.87,4.525L18.82,8L17.37,8L16.37,6L14.07,6L14.07,7L15.77,7L16.77,9L19.37,9L20.795,11.5C20.879,11.767 20.92,11.933 20.92,12C20.92,12.083 20.908,12.167 20.883,12.25C20.858,12.333 20.829,12.417 20.795,12.5L19.37,15L16.772,15Z" style="fill:white;"/>
            </g>
            <g transform="matrix(1.06943,0,0,1,48.8201,-74.2852)">
                <path d="M1197.84,1500.26L1214.64,1498.46L1215.84,1547.06C1170.24,1556.26 1129.84,1560.86 1094.64,1560.86C1050.24,1560.86 1018.34,1548.66 998.942,1524.26C979.542,1499.86 969.842,1460.86 969.842,1407.26C969.842,1300.86 1013.24,1247.66 1100.04,1247.66C1184.04,1247.66 1226.04,1293.46 1226.04,1385.06L1221.84,1431.86L1035.84,1431.86C1036.24,1456.66 1041.64,1474.86 1052.04,1486.46C1062.44,1498.06 1081.84,1503.86 1110.24,1503.86C1138.64,1503.86 1167.84,1502.66 1197.84,1500.26ZM1161.84,1381.46C1161.84,1351.86 1157.14,1331.16 1147.74,1319.36C1138.34,1307.56 1122.44,1301.66 1100.04,1301.66C1077.64,1301.66 1061.34,1307.86 1051.14,1320.26C1040.94,1332.66 1035.64,1353.06 1035.24,1381.46L1161.84,1381.46Z" style="fill:white;fill-rule:nonzero;"/>
                <path d="M1354.44,1554.26L1289.04,1554.26L1289.04,1254.26L1353.84,1254.26L1353.84,1272.86C1382.24,1256.06 1408.24,1247.66 1431.84,1247.66C1466.64,1247.66 1492.04,1257.46 1508.04,1277.06C1544.44,1257.46 1580.64,1247.66 1616.64,1247.66C1652.64,1247.66 1678.04,1258.76 1692.84,1280.96C1707.64,1303.16 1715.04,1340.66 1715.04,1393.46L1715.04,1554.26L1650.24,1554.26L1650.24,1395.26C1650.24,1362.86 1646.94,1339.86 1640.34,1326.26C1633.74,1312.66 1620.04,1305.86 1599.24,1305.86C1581.24,1305.86 1561.84,1309.86 1541.04,1317.86L1530.84,1322.06C1534.04,1330.06 1535.64,1355.66 1535.64,1398.86L1535.64,1554.26L1470.84,1554.26L1470.84,1400.06C1470.84,1364.46 1467.64,1339.86 1461.24,1326.26C1454.84,1312.66 1440.84,1305.86 1419.24,1305.86C1399.24,1305.86 1380.64,1309.86 1363.44,1317.86L1354.44,1321.46L1354.44,1554.26Z" style="fill:white;fill-rule:nonzero;"/>
                <path d="M2005.44,1500.26L2022.24,1498.46L2023.44,1547.06C1977.84,1556.26 1937.44,1560.86 1902.24,1560.86C1857.84,1560.86 1825.94,1548.66 1806.54,1524.26C1787.14,1499.86 1777.44,1460.86 1777.44,1407.26C1777.44,1300.86 1820.84,1247.66 1907.64,1247.66C1991.64,1247.66 2033.64,1293.46 2033.64,1385.06L2029.44,1431.86L1843.44,1431.86C1843.84,1456.66 1849.24,1474.86 1859.64,1486.46C1870.04,1498.06 1889.44,1503.86 1917.84,1503.86C1946.24,1503.86 1975.44,1502.66 2005.44,1500.26ZM1969.44,1381.46C1969.44,1351.86 1964.74,1331.16 1955.34,1319.36C1945.94,1307.56 1930.04,1301.66 1907.64,1301.66C1885.24,1301.66 1868.94,1307.86 1858.74,1320.26C1848.54,1332.66 1843.24,1353.06 1842.84,1381.46L1969.44,1381.46Z" style="fill:white;fill-rule:nonzero;"/>
                <path d="M2096.64,1554.26L2096.64,1254.26L2161.44,1254.26L2161.44,1290.26C2195.44,1268.26 2229.44,1254.06 2263.44,1247.66L2263.44,1313.06C2229.04,1319.86 2199.64,1328.66 2175.24,1339.46L2162.04,1344.86L2162.04,1554.26L2096.64,1554.26Z" style="fill:white;fill-rule:nonzero;"/>
                <path d="M2573.64,1595.06C2573.64,1660.66 2526.24,1693.46 2431.44,1693.46C2385.84,1693.46 2352.04,1687.26 2330.04,1674.86C2308.04,1662.46 2297.04,1639.86 2297.04,1607.06C2297.04,1592.26 2300.64,1579.56 2307.84,1568.96C2315.04,1558.36 2326.64,1546.86 2342.64,1534.46C2329.44,1525.66 2322.84,1511.06 2322.84,1490.66C2322.84,1482.66 2328.24,1469.66 2339.04,1451.66L2344.44,1442.66C2315.64,1425.46 2301.24,1395.46 2301.24,1352.66C2301.24,1316.66 2312.04,1290.26 2333.64,1273.46C2355.24,1256.66 2384.44,1248.26 2421.24,1248.26C2438.84,1248.26 2456.24,1250.26 2473.44,1254.26L2482.44,1256.06L2575.44,1253.66L2575.44,1306.46L2525.64,1303.46C2536.44,1317.46 2541.84,1333.86 2541.84,1352.66C2541.84,1391.86 2531.94,1418.96 2512.14,1433.96C2492.34,1448.96 2461.44,1456.46 2419.44,1456.46C2409.04,1456.46 2400.24,1455.66 2393.04,1454.06C2387.44,1467.66 2384.64,1478.16 2384.64,1485.56C2384.64,1492.96 2388.34,1498.06 2395.74,1500.86C2403.14,1503.66 2421.04,1505.26 2449.44,1505.66C2497.04,1506.06 2529.64,1512.46 2547.24,1524.86C2564.84,1537.26 2573.64,1560.66 2573.64,1595.06ZM2361.24,1601.06C2361.24,1615.06 2366.84,1625.06 2378.04,1631.06C2389.24,1637.06 2408.44,1640.06 2435.64,1640.06C2484.04,1640.06 2508.24,1626.26 2508.24,1598.66C2508.24,1583.06 2503.94,1573.16 2495.34,1568.96C2486.74,1564.76 2469.64,1562.46 2444.04,1562.06L2385.24,1558.46C2376.44,1565.66 2370.24,1572.36 2366.64,1578.56C2363.04,1584.76 2361.24,1592.26 2361.24,1601.06ZM2366.04,1352.66C2366.04,1371.06 2370.44,1384.56 2379.24,1393.16C2388.04,1401.76 2402.24,1406.06 2421.84,1406.06C2441.44,1406.06 2455.54,1401.76 2464.14,1393.16C2472.74,1384.56 2477.04,1371.06 2477.04,1352.66C2477.04,1334.26 2472.64,1320.76 2463.84,1312.16C2455.04,1303.56 2440.84,1299.26 2421.24,1299.26C2384.44,1299.26 2366.04,1317.06 2366.04,1352.66Z" style="fill:white;fill-rule:nonzero;"/>
                <path d="M2626.44,1554.26L2626.44,1254.26L2691.84,1254.26L2691.84,1554.26L2626.44,1554.26ZM2626.44,1203.26L2626.44,1134.26L2691.84,1134.26L2691.84,1203.26L2626.44,1203.26Z" style="fill:white;fill-rule:nonzero;"/>
                <path d="M2874.84,1560.86C2833.64,1560.86 2803.74,1549.26 2785.14,1526.06C2766.54,1502.86 2757.24,1462.16 2757.24,1403.96C2757.24,1345.76 2768.14,1305.16 2789.94,1282.16C2811.74,1259.16 2849.44,1247.66 2903.04,1247.66C2922.64,1247.66 2952.64,1249.46 2993.04,1253.06L3012.84,1254.86L3012.84,1683.26L2948.04,1683.26L2948.04,1542.86C2921.24,1554.86 2896.84,1560.86 2874.84,1560.86ZM2903.04,1304.06C2871.44,1304.06 2850.14,1311.96 2839.14,1327.76C2828.14,1343.56 2822.64,1369.26 2822.64,1404.86C2822.64,1440.46 2827.54,1465.66 2837.34,1480.46C2847.14,1495.26 2862.24,1502.66 2882.64,1502.66C2901.44,1502.66 2920.24,1499.66 2939.04,1493.66L2948.04,1490.66L2948.04,1306.46C2928.84,1304.86 2913.84,1304.06 2903.04,1304.06Z" style="fill:white;fill-rule:nonzero;"/>
            </g>
        </g>
    </g>
</svg>
