<?xml version="1.0" encoding="UTF-8" standalone="no"?>
<!DOCTYPE svg PUBLIC "-//W3C//DTD SVG 1.1//EN" "http://www.w3.org/Graphics/SVG/1.1/DTD/svg11.dtd">
<svg width="100%" height="100%" viewBox="0 0 18 16" version="1.1" xmlns="http://www.w3.org/2000/svg" xmlns:xlink="http://www.w3.org/1999/xlink" xml:space="preserve" xmlns:serif="http://www.serif.com/" style="fill-rule:evenodd;clip-rule:evenodd;stroke-linejoin:round;stroke-miterlimit:2;">
    <g id="Artboard1" transform="matrix(1,0,0,1,-3.15,-4)">
        <rect x="3.15" y="4" width="17.77" height="16" style="fill:none;"/>
        <clipPath id="_clip1">
            <rect x="3.15" y="4" width="17.77" height="16"/>
        </clipPath>
        <g clip-path="url(#_clip1)">
            <g transform="matrix(1,0,0,1,0.15,0)">
                <path d="M7.298,15L4.7,15L3.275,12.5C3.242,12.417 3.213,12.333 3.188,12.25C3.163,12.167 3.15,12.083 3.15,12C3.15,11.933 3.192,11.767 3.275,11.5L4.7,9L7.3,9L8.3,7L10,7L10,6L7.7,6L6.7,8L5.25,8L7.2,4.525C7.283,4.358 7.404,4.229 7.563,4.137C7.721,4.046 7.892,4 8.075,4L10.5,4C10.783,4 11.021,4.096 11.213,4.287C11.404,4.479 11.5,4.717 11.5,5L11.5,9L10,9L9,10L11.5,10L11.5,13L9.3,13L8.3,11L6,11L5,12L7.7,12L8.7,14L11.5,14L11.498,18.464L11.498,19C11.498,19.283 11.402,19.521 11.211,19.713C11.019,19.904 10.782,20 10.498,20L8.073,20C7.89,20 7.72,19.954 7.562,19.863L7.561,19.862C7.403,19.77 7.282,19.642 7.198,19.475L5.248,16L6.7,16L7.7,18L9.998,18L9.998,17L8.298,17L7.298,15ZM16.772,15L15.772,17L14.072,17L14.072,18L16.37,18L17.37,16L18.822,16L16.872,19.475C16.789,19.642 16.668,19.77 16.509,19.862L16.508,19.863C16.35,19.954 16.18,20 15.997,20L13.572,20C13.289,20 13.051,19.904 12.86,19.713C12.668,19.521 12.572,19.283 12.572,19L12.572,18.464L12.57,14L15.37,14L16.37,12L19.07,12L18.07,11L15.77,11L14.77,13L12.57,13L12.57,10L15.07,10L14.07,9L12.57,9L12.57,5C12.57,4.717 12.666,4.479 12.858,4.287C13.05,4.096 13.287,4 13.57,4L15.995,4C16.179,4 16.35,4.046 16.508,4.137C16.666,4.229 16.787,4.358 16.87,4.525L18.82,8L17.37,8L16.37,6L14.07,6L14.07,7L15.77,7L16.77,9L19.37,9L20.795,11.5C20.879,11.767 20.92,11.933 20.92,12C20.92,12.083 20.908,12.167 20.883,12.25C20.858,12.333 20.829,12.417 20.795,12.5L19.37,15L16.772,15Z"/>
            </g>
        </g>
    </g>
</svg>
